<mxfile host="Electron" modified="2024-02-23T14:06:12.464Z" agent="Mozilla/5.0 (Windows NT 10.0; Win64; x64) AppleWebKit/537.36 (KHTML, like Gecko) draw.io/23.1.5 Chrome/120.0.6099.109 Electron/28.1.0 Safari/537.36" etag="ippoPh39yXGv5t_lTJ03" version="23.1.5" type="device">
  <diagram name="Page-1" id="O5Uq39N52Lteyzyp5AII">
    <mxGraphModel dx="1143" dy="711" grid="1" gridSize="10" guides="1" tooltips="1" connect="1" arrows="1" fold="1" page="1" pageScale="1" pageWidth="1654" pageHeight="1169" background="#ffffff" math="0" shadow="0">
      <root>
        <mxCell id="0" />
        <mxCell id="1" parent="0" />
        <mxCell id="-ShAr4N25VCIkTMLjoMP-85" style="edgeStyle=orthogonalEdgeStyle;rounded=0;orthogonalLoop=1;jettySize=auto;html=1;exitX=1;exitY=0.75;exitDx=0;exitDy=0;entryX=1;entryY=0.5;entryDx=0;entryDy=0;fontFamily=Helvetica;fontSize=15;fontColor=#0D0D0D;labelBackgroundColor=none;" edge="1" parent="1" source="-ShAr4N25VCIkTMLjoMP-10" target="-ShAr4N25VCIkTMLjoMP-83">
          <mxGeometry relative="1" as="geometry" />
        </mxCell>
        <mxCell id="-ShAr4N25VCIkTMLjoMP-10" value="«component»&lt;br style=&quot;font-size: 15px;&quot;&gt;&lt;b style=&quot;font-size: 15px;&quot;&gt;Client&lt;/b&gt;" style="html=1;dropTarget=0;whiteSpace=wrap;align=center;verticalAlign=top;fillColor=#d0cee2;strokeColor=#56517e;labelBackgroundColor=none;strokeWidth=3;rounded=0;perimeterSpacing=0;arcSize=4;fontColor=#000000;fontSize=15;" vertex="1" parent="1">
          <mxGeometry x="240" y="160" width="200" height="200" as="geometry" />
        </mxCell>
        <mxCell id="-ShAr4N25VCIkTMLjoMP-11" value="" style="shape=module;jettyWidth=8;jettyHeight=4;strokeColor=#56517e;fontSize=15;labelBackgroundColor=none;rounded=0;strokeWidth=1;align=center;verticalAlign=top;arcSize=4;fontFamily=Helvetica;fontColor=default;fillColor=#000000;" vertex="1" parent="-ShAr4N25VCIkTMLjoMP-10">
          <mxGeometry x="1" width="20" height="20" relative="1" as="geometry">
            <mxPoint x="-27" y="7" as="offset" />
          </mxGeometry>
        </mxCell>
        <mxCell id="-ShAr4N25VCIkTMLjoMP-22" value="«component»&lt;br style=&quot;font-size: 15px;&quot;&gt;&lt;b style=&quot;font-size: 15px;&quot;&gt;Server&lt;/b&gt;" style="html=1;dropTarget=0;whiteSpace=wrap;strokeColor=#0e8088;align=center;verticalAlign=top;fontFamily=Helvetica;fontSize=15;fillColor=#B0F5F5;rounded=0;arcSize=4;strokeWidth=3;fontColor=#050505;" vertex="1" parent="1">
          <mxGeometry x="600" y="159" width="440" height="441" as="geometry" />
        </mxCell>
        <mxCell id="-ShAr4N25VCIkTMLjoMP-23" value="" style="shape=module;jettyWidth=8;jettyHeight=4;strokeColor=#0e8088;align=center;verticalAlign=top;fontFamily=Helvetica;fontSize=15;fontColor=default;fillColor=#000000;labelBackgroundColor=none;rounded=0;strokeWidth=1;arcSize=4;" vertex="1" parent="-ShAr4N25VCIkTMLjoMP-22">
          <mxGeometry x="1" width="20" height="20" relative="1" as="geometry">
            <mxPoint x="-27" y="7" as="offset" />
          </mxGeometry>
        </mxCell>
        <mxCell id="-ShAr4N25VCIkTMLjoMP-24" value="«component»&lt;br style=&quot;font-size: 15px;&quot;&gt;&lt;b style=&quot;font-size: 15px;&quot;&gt;DataBase&lt;/b&gt;" style="html=1;dropTarget=0;whiteSpace=wrap;rounded=0;strokeColor=#d79b00;strokeWidth=3;align=center;verticalAlign=top;arcSize=4;fontFamily=Helvetica;fontSize=15;labelBackgroundColor=none;fillColor=#ffe6cc;fontColor=#000000;" vertex="1" parent="1">
          <mxGeometry x="240" y="440" width="200" height="160" as="geometry" />
        </mxCell>
        <mxCell id="-ShAr4N25VCIkTMLjoMP-25" value="" style="shape=module;jettyWidth=8;jettyHeight=4;rounded=0;strokeColor=#d79b00;strokeWidth=1;align=center;verticalAlign=top;arcSize=4;fontFamily=Helvetica;fontSize=15;labelBackgroundColor=none;fillColor=#000000;fontColor=default;" vertex="1" parent="-ShAr4N25VCIkTMLjoMP-24">
          <mxGeometry x="1" width="20" height="20" relative="1" as="geometry">
            <mxPoint x="-27" y="7" as="offset" />
          </mxGeometry>
        </mxCell>
        <mxCell id="-ShAr4N25VCIkTMLjoMP-26" value="«component»&lt;br style=&quot;font-size: 15px;&quot;&gt;&lt;b style=&quot;font-size: 15px;&quot;&gt;File Preprocessing&lt;/b&gt;" style="html=1;dropTarget=0;whiteSpace=wrap;rounded=0;strokeColor=#0e8088;strokeWidth=3;align=center;verticalAlign=top;arcSize=4;fontFamily=Helvetica;fontSize=15;fontColor=#0D0D0D;labelBackgroundColor=none;fillColor=#48C3C7;" vertex="1" parent="1">
          <mxGeometry x="660" y="213.45999999999998" width="180" height="50" as="geometry" />
        </mxCell>
        <mxCell id="-ShAr4N25VCIkTMLjoMP-27" value="" style="shape=module;jettyWidth=8;jettyHeight=4;rounded=1;strokeColor=#0e8088;strokeWidth=1;align=center;verticalAlign=top;arcSize=4;fontFamily=Helvetica;fontSize=15;fontColor=#0D0D0D;labelBackgroundColor=default;fillColor=#000000;" vertex="1" parent="-ShAr4N25VCIkTMLjoMP-26">
          <mxGeometry x="1" width="20" height="20" relative="1" as="geometry">
            <mxPoint x="-27" y="7" as="offset" />
          </mxGeometry>
        </mxCell>
        <mxCell id="-ShAr4N25VCIkTMLjoMP-127" style="edgeStyle=orthogonalEdgeStyle;rounded=0;orthogonalLoop=1;jettySize=auto;html=1;entryX=1;entryY=0.5;entryDx=0;entryDy=0;fontFamily=Helvetica;fontSize=15;fontColor=#0D0D0D;labelBackgroundColor=none;fillColor=#b0e3e6;strokeColor=#0e8088;strokeWidth=3;endArrow=none;endFill=0;" edge="1" parent="1" source="-ShAr4N25VCIkTMLjoMP-28" target="-ShAr4N25VCIkTMLjoMP-112">
          <mxGeometry relative="1" as="geometry" />
        </mxCell>
        <mxCell id="-ShAr4N25VCIkTMLjoMP-28" value="«component»&lt;br style=&quot;font-size: 15px;&quot;&gt;&lt;b style=&quot;font-size: 15px;&quot;&gt;Categorization&lt;/b&gt;" style="html=1;dropTarget=0;whiteSpace=wrap;rounded=0;strokeColor=#0e8088;strokeWidth=3;align=center;verticalAlign=top;arcSize=4;fontFamily=Helvetica;fontSize=15;fontColor=#0D0D0D;labelBackgroundColor=none;fillColor=#48C3C7;" vertex="1" parent="1">
          <mxGeometry x="840.06" y="513.55" width="180" height="50" as="geometry" />
        </mxCell>
        <mxCell id="-ShAr4N25VCIkTMLjoMP-29" value="" style="shape=module;jettyWidth=8;jettyHeight=4;rounded=0;strokeColor=#0e8088;strokeWidth=1;align=center;verticalAlign=top;arcSize=4;fontFamily=Helvetica;fontSize=15;labelBackgroundColor=default;fillColor=#000000;" vertex="1" parent="-ShAr4N25VCIkTMLjoMP-28">
          <mxGeometry x="1" width="20" height="20" relative="1" as="geometry">
            <mxPoint x="-27" y="7" as="offset" />
          </mxGeometry>
        </mxCell>
        <mxCell id="-ShAr4N25VCIkTMLjoMP-30" value="«component»&lt;br style=&quot;font-size: 15px;&quot;&gt;&lt;b style=&quot;font-size: 15px;&quot;&gt;File description and summarization&lt;/b&gt;" style="html=1;dropTarget=0;whiteSpace=wrap;rounded=0;strokeColor=#0e8088;strokeWidth=3;align=center;verticalAlign=top;arcSize=4;fontFamily=Helvetica;fontSize=15;fontColor=#0D0D0D;labelBackgroundColor=none;fillColor=#48C3C7;" vertex="1" parent="1">
          <mxGeometry x="840" y="305.21" width="180" height="64.79" as="geometry" />
        </mxCell>
        <mxCell id="-ShAr4N25VCIkTMLjoMP-31" value="" style="shape=module;jettyWidth=8;jettyHeight=4;rounded=0;strokeColor=#0e8088;strokeWidth=1;align=center;verticalAlign=top;arcSize=4;fontFamily=Helvetica;fontSize=15;labelBackgroundColor=none;fillColor=#000000;" vertex="1" parent="-ShAr4N25VCIkTMLjoMP-30">
          <mxGeometry x="1" width="20" height="20" relative="1" as="geometry">
            <mxPoint x="-27" y="7" as="offset" />
          </mxGeometry>
        </mxCell>
        <mxCell id="-ShAr4N25VCIkTMLjoMP-101" style="edgeStyle=orthogonalEdgeStyle;rounded=0;orthogonalLoop=1;jettySize=auto;html=1;exitX=0;exitY=0.5;exitDx=0;exitDy=0;fontFamily=Helvetica;fontSize=15;fontColor=#0D0D0D;labelBackgroundColor=none;fillColor=#b0e3e6;strokeColor=#0e8088;strokeWidth=3;endArrow=none;endFill=0;" edge="1" parent="1" source="-ShAr4N25VCIkTMLjoMP-35" target="-ShAr4N25VCIkTMLjoMP-93">
          <mxGeometry relative="1" as="geometry" />
        </mxCell>
        <mxCell id="-ShAr4N25VCIkTMLjoMP-35" value="«component»&lt;br style=&quot;font-size: 15px;&quot;&gt;&lt;b style=&quot;font-size: 15px;&quot;&gt;Search&lt;/b&gt;" style="html=1;dropTarget=0;whiteSpace=wrap;rounded=0;strokeColor=#0e8088;strokeWidth=3;align=center;verticalAlign=top;arcSize=4;fontFamily=Helvetica;fontSize=15;fontColor=#0D0D0D;labelBackgroundColor=none;fillColor=#48C3C7;" vertex="1" parent="1">
          <mxGeometry x="640" y="410" width="150" height="50" as="geometry" />
        </mxCell>
        <mxCell id="-ShAr4N25VCIkTMLjoMP-36" value="" style="shape=module;jettyWidth=8;jettyHeight=4;rounded=0;strokeColor=#0e8088;strokeWidth=1;align=center;verticalAlign=top;arcSize=4;fontFamily=Helvetica;fontSize=15;labelBackgroundColor=none;fillColor=#000000;" vertex="1" parent="-ShAr4N25VCIkTMLjoMP-35">
          <mxGeometry x="1" width="20" height="20" relative="1" as="geometry">
            <mxPoint x="-27" y="7" as="offset" />
          </mxGeometry>
        </mxCell>
        <mxCell id="-ShAr4N25VCIkTMLjoMP-45" style="edgeStyle=orthogonalEdgeStyle;rounded=0;orthogonalLoop=1;jettySize=auto;html=1;fontFamily=Helvetica;fontSize=15;fontColor=#0D0D0D;labelBackgroundColor=none;strokeWidth=3;fillColor=#b0e3e6;strokeColor=#0e8088;endArrow=none;endFill=0;exitX=1;exitY=0.5;exitDx=0;exitDy=0;exitPerimeter=0;" edge="1" parent="1" source="-ShAr4N25VCIkTMLjoMP-96" target="-ShAr4N25VCIkTMLjoMP-26">
          <mxGeometry relative="1" as="geometry">
            <mxPoint x="550" y="238" as="sourcePoint" />
            <mxPoint x="580" y="238.46000000000004" as="targetPoint" />
          </mxGeometry>
        </mxCell>
        <mxCell id="-ShAr4N25VCIkTMLjoMP-98" style="edgeStyle=orthogonalEdgeStyle;rounded=0;orthogonalLoop=1;jettySize=auto;html=1;fontFamily=Helvetica;fontSize=15;fontColor=#0D0D0D;labelBackgroundColor=none;dashed=1;strokeWidth=3;fillColor=#d0cee2;strokeColor=#56517e;endArrow=classic;endFill=1;" edge="1" parent="1" source="-ShAr4N25VCIkTMLjoMP-37" target="-ShAr4N25VCIkTMLjoMP-96">
          <mxGeometry relative="1" as="geometry" />
        </mxCell>
        <mxCell id="-ShAr4N25VCIkTMLjoMP-37" value="" style="ellipse;rounded=0;strokeColor=#56517e;strokeWidth=3;align=center;verticalAlign=top;arcSize=4;fontFamily=Helvetica;fontSize=15;labelBackgroundColor=none;fillColor=#d0cee2;" vertex="1" parent="1">
          <mxGeometry x="476.64000000000004" y="226" width="26.54" height="26.54" as="geometry" />
        </mxCell>
        <mxCell id="-ShAr4N25VCIkTMLjoMP-39" value="" style="endArrow=none;html=1;rounded=0;fontFamily=Helvetica;fontSize=15;fontColor=#0D0D0D;labelBackgroundColor=none;exitX=0;exitY=0.5;exitDx=0;exitDy=0;strokeWidth=3;fillColor=#d0cee2;strokeColor=#56517e;entryX=1;entryY=0.5;entryDx=0;entryDy=0;endFill=0;startArrow=none;startFill=0;" edge="1" parent="1" source="-ShAr4N25VCIkTMLjoMP-37" target="-ShAr4N25VCIkTMLjoMP-81">
          <mxGeometry width="50" height="50" relative="1" as="geometry">
            <mxPoint x="498.0020492616708" y="238.69982212861373" as="sourcePoint" />
            <mxPoint x="440" y="239" as="targetPoint" />
          </mxGeometry>
        </mxCell>
        <mxCell id="-ShAr4N25VCIkTMLjoMP-52" value="" style="ellipse;rounded=0;strokeColor=#56517e;strokeWidth=3;align=center;verticalAlign=top;arcSize=4;fontFamily=Helvetica;fontSize=15;labelBackgroundColor=none;fillColor=#d0cee2;" vertex="1" parent="1">
          <mxGeometry x="509.64" y="294.77" width="26.82" height="26.82" as="geometry" />
        </mxCell>
        <mxCell id="-ShAr4N25VCIkTMLjoMP-53" value="" style="endArrow=none;html=1;rounded=0;fontFamily=Helvetica;fontSize=15;fontColor=#0D0D0D;labelBackgroundColor=none;strokeWidth=3;fillColor=#d0cee2;strokeColor=#56517e;edgeStyle=orthogonalEdgeStyle;entryX=1;entryY=0.5;entryDx=0;entryDy=0;endFill=0;startArrow=none;startFill=0;" edge="1" parent="1" source="-ShAr4N25VCIkTMLjoMP-52" target="-ShAr4N25VCIkTMLjoMP-83">
          <mxGeometry width="50" height="50" relative="1" as="geometry">
            <mxPoint x="498.0020492616708" y="435.2298221286137" as="sourcePoint" />
            <mxPoint x="440" y="310" as="targetPoint" />
          </mxGeometry>
        </mxCell>
        <mxCell id="-ShAr4N25VCIkTMLjoMP-58" style="edgeStyle=orthogonalEdgeStyle;rounded=0;orthogonalLoop=1;jettySize=auto;html=1;exitX=1;exitY=0.5;exitDx=0;exitDy=0;fontFamily=Helvetica;fontSize=15;fontColor=#0D0D0D;labelBackgroundColor=none;strokeWidth=3;fillColor=#b0e3e6;strokeColor=#0e8088;endArrow=none;endFill=0;curved=1;exitPerimeter=0;" edge="1" parent="1" source="-ShAr4N25VCIkTMLjoMP-57" target="-ShAr4N25VCIkTMLjoMP-30">
          <mxGeometry relative="1" as="geometry">
            <mxPoint x="980" y="238.46000000000004" as="targetPoint" />
          </mxGeometry>
        </mxCell>
        <mxCell id="-ShAr4N25VCIkTMLjoMP-105" style="edgeStyle=orthogonalEdgeStyle;rounded=0;orthogonalLoop=1;jettySize=auto;html=1;exitX=0.5;exitY=1;exitDx=0;exitDy=0;fontFamily=Helvetica;fontSize=15;fontColor=#0D0D0D;labelBackgroundColor=none;curved=1;dashed=1;fillColor=#b0e3e6;strokeColor=#0e8088;strokeWidth=3;endArrow=none;endFill=0;" edge="1" parent="1" source="-ShAr4N25VCIkTMLjoMP-59" target="-ShAr4N25VCIkTMLjoMP-65">
          <mxGeometry relative="1" as="geometry">
            <Array as="points">
              <mxPoint x="750" y="410" />
              <mxPoint x="930" y="410" />
            </Array>
          </mxGeometry>
        </mxCell>
        <mxCell id="-ShAr4N25VCIkTMLjoMP-59" value="" style="ellipse;rounded=0;strokeColor=#0e8088;strokeWidth=3;align=center;verticalAlign=top;arcSize=4;fontFamily=Helvetica;fontSize=15;fontColor=#0D0D0D;labelBackgroundColor=none;fillColor=#48C3C7;" vertex="1" parent="1">
          <mxGeometry x="737.45" y="284.91" width="25.09" height="25.09" as="geometry" />
        </mxCell>
        <mxCell id="-ShAr4N25VCIkTMLjoMP-60" value="" style="endArrow=none;html=1;rounded=0;fontFamily=Helvetica;fontSize=15;fontColor=#0D0D0D;labelBackgroundColor=none;exitX=0.5;exitY=0;exitDx=0;exitDy=0;strokeWidth=3;fillColor=#b0e3e6;strokeColor=#0e8088;" edge="1" parent="1" source="-ShAr4N25VCIkTMLjoMP-59" target="-ShAr4N25VCIkTMLjoMP-26">
          <mxGeometry width="50" height="50" relative="1" as="geometry">
            <mxPoint x="890" y="220" as="sourcePoint" />
            <mxPoint x="860" y="238.46000000000004" as="targetPoint" />
          </mxGeometry>
        </mxCell>
        <mxCell id="-ShAr4N25VCIkTMLjoMP-108" style="edgeStyle=orthogonalEdgeStyle;rounded=0;orthogonalLoop=1;jettySize=auto;html=1;fontFamily=Helvetica;fontSize=15;fontColor=#0D0D0D;labelBackgroundColor=none;strokeWidth=3;endArrow=none;endFill=0;fillColor=#b0e3e6;strokeColor=#0e8088;" edge="1" parent="1" source="-ShAr4N25VCIkTMLjoMP-65" target="-ShAr4N25VCIkTMLjoMP-28">
          <mxGeometry relative="1" as="geometry" />
        </mxCell>
        <mxCell id="-ShAr4N25VCIkTMLjoMP-65" value="" style="shape=requiredInterface;html=1;verticalLabelPosition=bottom;sketch=0;rounded=0;strokeColor=#0e8088;strokeWidth=3;align=center;verticalAlign=top;arcSize=4;fontFamily=Helvetica;fontSize=15;fontColor=#0D0D0D;labelBackgroundColor=none;fillColor=#48C3C7;rotation=90;" vertex="1" parent="1">
          <mxGeometry x="921.89" y="439.35" width="16.35" height="45.03" as="geometry" />
        </mxCell>
        <mxCell id="-ShAr4N25VCIkTMLjoMP-107" style="edgeStyle=orthogonalEdgeStyle;rounded=0;orthogonalLoop=1;jettySize=auto;html=1;fontFamily=Helvetica;fontSize=15;fontColor=#0D0D0D;labelBackgroundColor=none;fillColor=#b0e3e6;strokeColor=#0e8088;endArrow=classic;endFill=1;strokeWidth=3;dashed=1;" edge="1" parent="1" source="-ShAr4N25VCIkTMLjoMP-67" target="-ShAr4N25VCIkTMLjoMP-65">
          <mxGeometry relative="1" as="geometry" />
        </mxCell>
        <mxCell id="-ShAr4N25VCIkTMLjoMP-67" value="" style="ellipse;rounded=0;strokeColor=#0e8088;strokeWidth=3;align=center;verticalAlign=top;arcSize=4;fontFamily=Helvetica;fontSize=15;fontColor=#0D0D0D;labelBackgroundColor=none;fillColor=#48C3C7;" vertex="1" parent="1">
          <mxGeometry x="917.5" y="385" width="25" height="25" as="geometry" />
        </mxCell>
        <mxCell id="-ShAr4N25VCIkTMLjoMP-68" value="" style="endArrow=none;html=1;rounded=0;fontFamily=Helvetica;fontSize=15;fontColor=#0D0D0D;labelBackgroundColor=none;exitX=0.5;exitY=0;exitDx=0;exitDy=0;strokeWidth=3;fillColor=#b0e3e6;strokeColor=#0e8088;entryX=0.5;entryY=1;entryDx=0;entryDy=0;" edge="1" parent="1" source="-ShAr4N25VCIkTMLjoMP-67" target="-ShAr4N25VCIkTMLjoMP-30">
          <mxGeometry width="50" height="50" relative="1" as="geometry">
            <mxPoint x="900" y="413.99" as="sourcePoint" />
            <mxPoint x="870" y="432.45000000000005" as="targetPoint" />
          </mxGeometry>
        </mxCell>
        <mxCell id="-ShAr4N25VCIkTMLjoMP-74" value="" style="ellipse;rounded=0;strokeColor=#d79b00;strokeWidth=3;align=center;verticalAlign=top;arcSize=4;fontFamily=Helvetica;fontSize=15;labelBackgroundColor=none;fillColor=#ffe6cc;" vertex="1" parent="1">
          <mxGeometry x="477.13000000000005" y="467.45000000000005" width="25.55" height="25.55" as="geometry" />
        </mxCell>
        <mxCell id="-ShAr4N25VCIkTMLjoMP-81" value="«component»&lt;br style=&quot;font-size: 15px;&quot;&gt;&lt;b style=&quot;font-size: 15px;&quot;&gt;Add Session&lt;/b&gt;" style="html=1;dropTarget=0;whiteSpace=wrap;align=center;verticalAlign=top;fillColor=#b49bf8;strokeColor=#595383;labelBackgroundColor=none;strokeWidth=3;rounded=0;perimeterSpacing=0;arcSize=4;fontColor=#000000;fontSize=15;" vertex="1" parent="1">
          <mxGeometry x="265" y="216" width="150" height="46.53" as="geometry" />
        </mxCell>
        <mxCell id="-ShAr4N25VCIkTMLjoMP-82" value="" style="shape=module;jettyWidth=8;jettyHeight=4;strokeColor=#56517e;fontSize=15;labelBackgroundColor=none;rounded=0;strokeWidth=1;align=center;verticalAlign=top;arcSize=4;fontFamily=Helvetica;fontColor=default;fillColor=#000000;" vertex="1" parent="-ShAr4N25VCIkTMLjoMP-81">
          <mxGeometry x="1" width="20" height="20" relative="1" as="geometry">
            <mxPoint x="-27" y="7" as="offset" />
          </mxGeometry>
        </mxCell>
        <mxCell id="-ShAr4N25VCIkTMLjoMP-83" value="«component»&lt;br style=&quot;font-size: 15px;&quot;&gt;&lt;b style=&quot;font-size: 15px;&quot;&gt;Search Session&lt;/b&gt;" style="html=1;dropTarget=0;whiteSpace=wrap;align=center;verticalAlign=top;fillColor=#b49bf8;strokeColor=#56517e;labelBackgroundColor=none;strokeWidth=3;rounded=0;perimeterSpacing=0;arcSize=4;fontColor=#000000;fontSize=15;" vertex="1" parent="1">
          <mxGeometry x="265" y="284.91" width="150" height="46.53" as="geometry" />
        </mxCell>
        <mxCell id="-ShAr4N25VCIkTMLjoMP-84" value="" style="shape=module;jettyWidth=8;jettyHeight=4;strokeColor=#595383;fontSize=15;labelBackgroundColor=none;rounded=0;strokeWidth=1;align=center;verticalAlign=top;arcSize=4;fontFamily=Helvetica;fontColor=default;fillColor=#000000;" vertex="1" parent="-ShAr4N25VCIkTMLjoMP-83">
          <mxGeometry x="1" width="20" height="20" relative="1" as="geometry">
            <mxPoint x="-27" y="7" as="offset" />
          </mxGeometry>
        </mxCell>
        <mxCell id="-ShAr4N25VCIkTMLjoMP-87" value="NewFileData" style="text;html=1;align=center;verticalAlign=middle;resizable=0;points=[];autosize=1;strokeColor=none;fillColor=none;fontFamily=Helvetica;fontSize=15;fontColor=#0D0D0D;labelBackgroundColor=none;" vertex="1" parent="1">
          <mxGeometry x="590" y="513.55" width="110" height="30" as="geometry" />
        </mxCell>
        <mxCell id="-ShAr4N25VCIkTMLjoMP-88" value="File" style="text;html=1;align=center;verticalAlign=middle;resizable=0;points=[];autosize=1;strokeColor=none;fillColor=none;fontFamily=Helvetica;fontSize=15;fontColor=#0D0D0D;labelBackgroundColor=none;" vertex="1" parent="1">
          <mxGeometry x="435" y="213.45999999999998" width="50" height="30" as="geometry" />
        </mxCell>
        <mxCell id="-ShAr4N25VCIkTMLjoMP-89" value="SearchWord" style="text;html=1;align=center;verticalAlign=middle;resizable=0;points=[];autosize=1;strokeColor=none;fillColor=none;fontFamily=Helvetica;fontSize=15;fontColor=#0D0D0D;labelBackgroundColor=none;" vertex="1" parent="1">
          <mxGeometry x="421.3" y="394.90999999999997" width="110" height="30" as="geometry" />
        </mxCell>
        <mxCell id="-ShAr4N25VCIkTMLjoMP-90" value="" style="shape=requiredInterface;html=1;verticalLabelPosition=bottom;sketch=0;rounded=0;strokeColor=#0e8088;strokeWidth=3;align=center;verticalAlign=top;arcSize=4;fontFamily=Helvetica;fontSize=15;fontColor=#0D0D0D;labelBackgroundColor=none;fillColor=#48C3C7;rotation=90;" vertex="1" parent="1">
          <mxGeometry x="514.8" y="365.21" width="16.5" height="44.91" as="geometry" />
        </mxCell>
        <mxCell id="-ShAr4N25VCIkTMLjoMP-91" style="edgeStyle=orthogonalEdgeStyle;rounded=0;orthogonalLoop=1;jettySize=auto;html=1;fontFamily=Helvetica;fontSize=15;fontColor=#0D0D0D;labelBackgroundColor=none;strokeWidth=3;fillColor=#d0cee2;strokeColor=#56517e;dashed=1;endArrow=classic;endFill=1;" edge="1" parent="1" source="-ShAr4N25VCIkTMLjoMP-52" target="-ShAr4N25VCIkTMLjoMP-90">
          <mxGeometry relative="1" as="geometry" />
        </mxCell>
        <mxCell id="-ShAr4N25VCIkTMLjoMP-96" value="" style="shape=requiredInterface;html=1;verticalLabelPosition=bottom;sketch=0;rounded=0;strokeColor=#0e8088;strokeWidth=3;align=center;verticalAlign=top;arcSize=4;fontFamily=Helvetica;fontSize=15;fontColor=#0D0D0D;labelBackgroundColor=none;fillColor=#48C3C7;rotation=0;" vertex="1" parent="1">
          <mxGeometry x="560" y="216.82" width="20" height="44.91" as="geometry" />
        </mxCell>
        <mxCell id="-ShAr4N25VCIkTMLjoMP-99" value="" style="html=1;rounded=0;strokeColor=#0e8088;strokeWidth=3;align=center;verticalAlign=top;arcSize=4;fontFamily=Helvetica;fontSize=15;fontColor=#0D0D0D;labelBackgroundColor=none;fillColor=#48C3C7;" vertex="1" parent="1">
          <mxGeometry x="590" y="231.73" width="20" height="18.27" as="geometry" />
        </mxCell>
        <mxCell id="-ShAr4N25VCIkTMLjoMP-93" value="" style="html=1;rounded=0;strokeColor=#0e8088;strokeWidth=3;align=center;verticalAlign=top;arcSize=4;fontFamily=Helvetica;fontSize=15;fontColor=#0D0D0D;labelBackgroundColor=none;fillColor=#48C3C7;" vertex="1" parent="1">
          <mxGeometry x="590" y="424.91" width="20" height="20" as="geometry" />
        </mxCell>
        <mxCell id="-ShAr4N25VCIkTMLjoMP-102" style="edgeStyle=orthogonalEdgeStyle;rounded=0;orthogonalLoop=1;jettySize=auto;html=1;entryX=1;entryY=0.5;entryDx=0;entryDy=0;entryPerimeter=0;fontFamily=Helvetica;fontSize=15;fontColor=#0D0D0D;labelBackgroundColor=none;strokeWidth=3;endArrow=none;endFill=0;fillColor=#b0e3e6;strokeColor=#0e8088;" edge="1" parent="1" source="-ShAr4N25VCIkTMLjoMP-93" target="-ShAr4N25VCIkTMLjoMP-90">
          <mxGeometry relative="1" as="geometry" />
        </mxCell>
        <mxCell id="-ShAr4N25VCIkTMLjoMP-103" value="" style="edgeStyle=orthogonalEdgeStyle;rounded=0;orthogonalLoop=1;jettySize=auto;html=1;exitX=0.5;exitY=1;exitDx=0;exitDy=0;fontFamily=Helvetica;fontSize=15;fontColor=#0D0D0D;labelBackgroundColor=none;strokeWidth=3;fillColor=#b0e3e6;strokeColor=#0e8088;endArrow=classic;endFill=1;curved=1;entryX=0;entryY=0.5;entryDx=0;entryDy=0;entryPerimeter=0;dashed=1;" edge="1" parent="1" source="-ShAr4N25VCIkTMLjoMP-59" target="-ShAr4N25VCIkTMLjoMP-57">
          <mxGeometry relative="1" as="geometry">
            <mxPoint x="750" y="315" as="sourcePoint" />
            <mxPoint x="840" y="340" as="targetPoint" />
          </mxGeometry>
        </mxCell>
        <mxCell id="-ShAr4N25VCIkTMLjoMP-57" value="" style="shape=requiredInterface;html=1;verticalLabelPosition=bottom;sketch=0;rounded=0;strokeColor=#0e8088;strokeWidth=3;align=center;verticalAlign=top;arcSize=4;fontFamily=Helvetica;fontSize=15;fontColor=#0D0D0D;labelBackgroundColor=none;fillColor=#48C3C7;rotation=0;" vertex="1" parent="1">
          <mxGeometry x="800" y="313.99" width="16.91" height="42.45" as="geometry" />
        </mxCell>
        <mxCell id="-ShAr4N25VCIkTMLjoMP-118" style="edgeStyle=orthogonalEdgeStyle;rounded=0;orthogonalLoop=1;jettySize=auto;html=1;fontFamily=Helvetica;fontSize=15;fontColor=#0D0D0D;labelBackgroundColor=none;strokeWidth=3;dashed=1;fillColor=#b0e3e6;strokeColor=#0e8088;entryX=0;entryY=0.5;entryDx=0;entryDy=0;endArrow=none;endFill=0;startArrow=classic;startFill=1;" edge="1" parent="1" source="-ShAr4N25VCIkTMLjoMP-110" target="-ShAr4N25VCIkTMLjoMP-112">
          <mxGeometry relative="1" as="geometry">
            <mxPoint x="696.64" y="155.78" as="targetPoint" />
          </mxGeometry>
        </mxCell>
        <mxCell id="-ShAr4N25VCIkTMLjoMP-128" style="edgeStyle=orthogonalEdgeStyle;rounded=0;orthogonalLoop=1;jettySize=auto;html=1;exitX=1;exitY=0.5;exitDx=0;exitDy=0;exitPerimeter=0;fontFamily=Helvetica;fontSize=15;fontColor=#0D0D0D;labelBackgroundColor=none;fillColor=#ffe6cc;strokeColor=#d79b00;strokeWidth=3;startArrow=none;startFill=0;endArrow=none;endFill=0;entryX=0.999;entryY=0.61;entryDx=0;entryDy=0;entryPerimeter=0;" edge="1" parent="1" source="-ShAr4N25VCIkTMLjoMP-110" target="-ShAr4N25VCIkTMLjoMP-24">
          <mxGeometry relative="1" as="geometry" />
        </mxCell>
        <mxCell id="-ShAr4N25VCIkTMLjoMP-110" value="" style="shape=requiredInterface;html=1;verticalLabelPosition=bottom;sketch=0;rounded=0;strokeColor=#d79b00;strokeWidth=3;align=center;verticalAlign=top;arcSize=4;fontFamily=Helvetica;fontSize=15;labelBackgroundColor=none;fillColor=#ffe6cc;rotation=-180;" vertex="1" parent="1">
          <mxGeometry x="476.6400000000001" y="517.3299999999999" width="16.91" height="42.45" as="geometry" />
        </mxCell>
        <mxCell id="-ShAr4N25VCIkTMLjoMP-112" value="" style="ellipse;rounded=0;strokeColor=#0e8088;strokeWidth=3;align=center;verticalAlign=top;arcSize=4;fontFamily=Helvetica;fontSize=15;labelBackgroundColor=none;fillColor=#b0e3e6;" vertex="1" parent="1">
          <mxGeometry x="544.86" y="525.78" width="25.55" height="25.55" as="geometry" />
        </mxCell>
        <mxCell id="-ShAr4N25VCIkTMLjoMP-115" style="edgeStyle=orthogonalEdgeStyle;rounded=0;orthogonalLoop=1;jettySize=auto;html=1;fontFamily=Helvetica;fontSize=15;fontColor=#0D0D0D;labelBackgroundColor=none;fillColor=#ffe6cc;strokeColor=#d79b00;strokeWidth=3;dashed=1;endArrow=none;endFill=0;startArrow=classic;startFill=1;" edge="1" parent="1" target="-ShAr4N25VCIkTMLjoMP-74">
          <mxGeometry relative="1" as="geometry">
            <mxPoint x="558.36" y="480" as="sourcePoint" />
          </mxGeometry>
        </mxCell>
        <mxCell id="-ShAr4N25VCIkTMLjoMP-129" style="edgeStyle=orthogonalEdgeStyle;rounded=0;orthogonalLoop=1;jettySize=auto;html=1;entryX=0.5;entryY=1;entryDx=0;entryDy=0;fontFamily=Helvetica;fontSize=15;fontColor=#0D0D0D;labelBackgroundColor=none;endArrow=none;endFill=0;fillColor=#b0e3e6;strokeColor=#0e8088;strokeWidth=3;" edge="1" parent="1" source="-ShAr4N25VCIkTMLjoMP-114" target="-ShAr4N25VCIkTMLjoMP-35">
          <mxGeometry relative="1" as="geometry" />
        </mxCell>
        <mxCell id="-ShAr4N25VCIkTMLjoMP-114" value="" style="shape=requiredInterface;html=1;verticalLabelPosition=bottom;sketch=0;rounded=0;strokeColor=#0e8088;strokeWidth=3;align=center;verticalAlign=top;arcSize=4;fontFamily=Helvetica;fontSize=15;fontColor=#0D0D0D;labelBackgroundColor=none;fillColor=#48C3C7;rotation=0;" vertex="1" parent="1">
          <mxGeometry x="558.28" y="459" width="16.91" height="42.45" as="geometry" />
        </mxCell>
        <mxCell id="-ShAr4N25VCIkTMLjoMP-116" value="ClearedData" style="text;html=1;align=center;verticalAlign=middle;resizable=0;points=[];autosize=1;strokeColor=none;fillColor=none;fontFamily=Helvetica;fontSize=15;fontColor=#0D0D0D;labelBackgroundColor=none;" vertex="1" parent="1">
          <mxGeometry x="735" y="264.77" width="110" height="30" as="geometry" />
        </mxCell>
        <mxCell id="-ShAr4N25VCIkTMLjoMP-117" value="Summarized&lt;br style=&quot;font-size: 15px;&quot;&gt;FileData" style="text;html=1;align=center;verticalAlign=middle;resizable=0;points=[];autosize=1;strokeColor=none;fillColor=none;fontFamily=Helvetica;fontSize=15;fontColor=#0D0D0D;labelBackgroundColor=none;" vertex="1" parent="1">
          <mxGeometry x="920" y="365.12" width="110" height="50" as="geometry" />
        </mxCell>
        <mxCell id="-ShAr4N25VCIkTMLjoMP-122" value="DataList" style="text;html=1;align=center;verticalAlign=middle;resizable=0;points=[];autosize=1;strokeColor=none;fillColor=none;fontFamily=Helvetica;fontSize=15;fontColor=#0D0D0D;labelBackgroundColor=none;" vertex="1" parent="1">
          <mxGeometry x="590" y="454.38" width="80" height="30" as="geometry" />
        </mxCell>
        <mxCell id="-ShAr4N25VCIkTMLjoMP-132" style="edgeStyle=orthogonalEdgeStyle;rounded=0;orthogonalLoop=1;jettySize=auto;html=1;fontFamily=Helvetica;fontSize=15;fontColor=#0D0D0D;labelBackgroundColor=none;strokeWidth=3;fillColor=#ffe6cc;strokeColor=#d79b00;endArrow=none;endFill=0;entryX=1.012;entryY=0.251;entryDx=0;entryDy=0;entryPerimeter=0;exitX=0;exitY=0.5;exitDx=0;exitDy=0;" edge="1" parent="1" source="-ShAr4N25VCIkTMLjoMP-74">
          <mxGeometry relative="1" as="geometry">
            <mxPoint x="480.00004278919994" y="480.23806451612904" as="sourcePoint" />
            <mxPoint x="440.39999999999986" y="480.14" as="targetPoint" />
          </mxGeometry>
        </mxCell>
      </root>
    </mxGraphModel>
  </diagram>
</mxfile>
